<?xml version="1.0" encoding="UTF-8"?>
<svg version="1.1" xmlns="http://www.w3.org/2000/svg" width="748" height="711">
<path d="M0 0 C3.07897537 2.71355851 5.43939731 2.80569166 9.50390625 2.75341797 C13.41550004 2.43165241 17.04205513 1.28582585 20.77734375 0.12890625 C37.40864145 -4.9371119 54.20209792 -4.74612563 70.15234375 2.62890625 C84.32400661 10.31194899 91.65780587 22.18695686 96.59863281 37.03369141 C98.53342334 42.67334133 98.53342334 42.67334133 102.77734375 46.56640625 C106.23396889 47.12071896 109.65735552 47.11777198 113.15234375 47.12890625 C130.30960678 47.58438408 145.68274148 50.6704777 158.77734375 62.56640625 C168.2524757 73.56671035 172.53062855 86.69048679 172.97265625 101.0078125 C173.00456055 101.99088379 173.03646484 102.97395508 173.06933594 103.98681641 C173.1240172 105.9743195 173.15901483 107.96247658 173.17285156 109.95068359 C173.24977455 115.21522151 173.24977455 115.21522151 175.20703125 119.984375 C179.87860245 122.85973418 185.01846713 124.53687061 190.16015625 126.390625 C202.27321581 130.95575706 212.52229398 139.74068488 218.19921875 151.515625 C225.16154855 168.49142326 225.04229387 185.0257002 219.50561523 202.27612305 C217.94259622 207.25692844 217.22968422 211.33439673 217.77734375 216.56640625 C220.14083652 220.95574997 223.35986578 224.46813677 226.65234375 228.19140625 C238.29788288 241.89380315 242.12079523 257.74701504 240.77734375 275.56640625 C238.88039857 290.28353924 232.9923982 300.81838529 223.265625 311.65625 C219.52179619 316.0348253 217.20224958 319.21376945 217.4140625 325.14453125 C218.03755008 329.30111511 219.45408807 333.20828157 220.75390625 337.1953125 C225.67421788 353.40229318 224.82833795 370.54002023 217.71484375 385.94140625 C211.06420854 398.24648448 200.90140655 406.24801994 187.8203125 410.72265625 C178.67054126 413.25969166 169.18652801 413.78987912 159.73828125 414.125 C156.49243536 414.6088794 155.0885922 415.27143419 152.77734375 417.56640625 C151.51273019 421.36024692 151.61663618 424.92598375 151.60375977 428.87963867 C151.59707275 429.72910065 151.59038574 430.57856262 151.58349609 431.45376587 C151.56943264 433.30344897 151.55754272 435.15314956 151.54754829 437.00285912 C151.53106848 439.95438602 151.50781443 442.90578914 151.48265076 445.85725403 C151.4121636 454.25185871 151.35255845 462.64652104 151.30053711 471.04125977 C150.76230281 555.55185308 150.76230281 555.55185308 130.08984375 576.46875 C122.62897185 583.23646658 114.82075969 587.09181007 105.46533203 590.63916016 C99.01485315 593.15754284 95.08661601 595.63628011 92.15234375 602.203125 C91.68233564 603.54936607 91.22437361 604.89986159 90.77734375 606.25390625 C90.26656706 607.68876731 89.75224275 609.12237046 89.234375 610.5546875 C88.9863916 611.2451416 88.7384082 611.9355957 88.48291016 612.64697266 C83.5056122 626.18728979 74.183689 636.23795659 61.34375 642.8125 C45.44885332 649.75539087 27.31646989 649.01840869 11.1796875 643.2890625 C8.97148782 642.41440247 6.76438701 641.53696114 4.55859375 640.65625 C-6.33893659 636.38600988 -16.41583168 641.7668438 -26.78515625 645.734375 C-40.89434594 650.55049264 -57.90157018 648.59447099 -71.22265625 642.56640625 C-74.30590787 641.04120012 -77.34852979 639.49240489 -80.34375 637.80078125 C-88.52559598 634.2926899 -94.34597943 636.10350924 -102.41015625 638.94140625 C-104.34041489 639.59720746 -106.27138238 640.25092677 -108.203125 640.90234375 C-109.04770264 641.1967334 -109.89228027 641.49112305 -110.76245117 641.79443359 C-124.61574467 646.14137356 -139.61910277 644.22538976 -153.1171875 639.70092773 C-162.89382756 636.44559278 -168.76554857 637.30577545 -178.16015625 641.44140625 C-197.64020059 649.87729385 -214.39321507 649.04076514 -234.03515625 641.31640625 C-234.80472656 640.98125 -235.57429687 640.64609375 -236.3671875 640.30078125 C-244.54988856 638.1963383 -251.39876386 639.85950938 -259.03515625 643.00390625 C-260.66539722 643.65164165 -262.29687517 644.2962741 -263.9296875 644.9375 C-264.63585205 645.2255249 -265.3420166 645.5135498 -266.06958008 645.81030273 C-280.77398448 650.9741014 -298.1547627 647.86574548 -312.19921875 642.41015625 C-313.13507813 642.04921875 -314.0709375 641.68828125 -315.03515625 641.31640625 C-315.82535156 640.98125 -316.61554688 640.64609375 -317.4296875 640.30078125 C-324.83843369 638.35274729 -331.08655696 639.80909669 -338.09765625 642.44140625 C-356.98593455 649.07829847 -375.90801104 650.09152742 -394.47265625 641.44140625 C-407.67819271 634.37282122 -415.75444001 624.67295667 -420.78808594 610.67651367 C-423.82496435 601.29170702 -423.82496435 601.29170702 -430.66796875 594.640625 C-434.77728468 592.91270163 -438.9509433 591.36959088 -443.15039062 589.87719727 C-457.52780317 584.69000637 -467.96258192 575.5709798 -474.6081543 561.85595703 C-483.07210241 543.10177864 -481.96591169 521.04781315 -475.03515625 501.94140625 C-469.88486212 489.81407304 -463.2209697 478.62463113 -455.91015625 467.69140625 C-455.09502175 466.46106314 -454.28059538 465.23025064 -453.46679688 463.99902344 C-451.68714203 461.30817821 -449.90402006 458.61967506 -448.11865234 455.93261719 C-445.0432362 451.30048294 -441.98527561 446.65694892 -438.9296875 442.01171875 C-438.38708786 441.18688995 -437.84448822 440.36206116 -437.28544617 439.51223755 C-436.16697038 437.81194468 -435.04851668 436.11163729 -433.93008423 434.41131592 C-431.03998649 430.01901203 -428.14689794 425.62867935 -425.25390625 421.23828125 C-418.96841792 411.69881681 -412.68491193 402.15804835 -406.40209961 392.61682129 C-403.59237697 388.34995582 -400.7825091 384.08318598 -397.97265625 379.81640625 C-396.84765556 378.10807337 -395.72265556 376.39974004 -394.59765625 374.69140625 C-333.84765629 282.44140631 -333.84765629 282.44140631 -332.16041565 279.87930298 C-331.03454752 278.1696495 -329.90868286 276.45999373 -328.78282166 274.75033569 C-325.98363227 270.499682 -323.18438419 266.24906699 -320.38500977 261.99853516 C-315.1639796 254.07086034 -309.94351875 246.14281243 -304.72506714 238.21343994 C-302.28926507 234.51234512 -299.85314005 230.81146292 -297.41699219 227.1105957 C-296.26790597 225.3647703 -295.11897388 223.61884344 -293.97021484 221.87280273 C-288.58107055 213.68172006 -283.18736379 205.49381227 -277.75390625 197.33203125 C-277.36605453 196.7487204 -276.97820282 196.16540955 -276.57859802 195.56442261 C-270.12904519 185.89434162 -263.49120458 176.55717209 -255.80102539 167.82763672 C-251.27360315 162.7925582 -251.27360315 162.7925582 -250.296875 156.3671875 C-251.45860546 151.59772026 -253.54232644 147.94560601 -256.03515625 143.75390625 C-266.64908546 125.19964291 -271.05377088 106.61412008 -266.31640625 85.33984375 C-262.64768189 72.68274472 -256.17002334 62.64656342 -244.99609375 55.50390625 C-233.26063039 49.14609314 -221.32960381 46.98739552 -208.11987305 47.67602539 C-203.09779231 47.86943886 -199.59437876 47.05228768 -195.22265625 44.56640625 C-192.29808026 40.92340182 -191.27969422 36.82007399 -189.97265625 32.37890625 C-187.8036108 25.51068025 -184.90294361 20.11195682 -180.22265625 14.56640625 C-179.6503125 13.86 -179.07796875 13.15359375 -178.48828125 12.42578125 C-168.30374428 1.02258173 -154.30924317 -2.04500529 -139.80859375 -3.7109375 C-130.55016737 -4.15777275 -119.82471778 -1.91054231 -111.16015625 1.25390625 C-106.83525897 2.80088874 -103.83556053 3.22539258 -99.22265625 2.56640625 C-95.40902503 0.49245939 -92.32586099 -2.37323191 -89.2109375 -5.3671875 C-80.95402669 -13.19675357 -70.64012895 -18.99872285 -59.22265625 -20.43359375 C-58.43246094 -20.56507812 -57.64226562 -20.6965625 -56.828125 -20.83203125 C-34.28875823 -23.87332512 -16.26532661 -15.02998535 0 0 Z M-296.22265625 509.56640625 C-300.33342528 512.1978221 -302.56279152 515.25080077 -304.97265625 519.44140625 C-305.565625 520.44945312 -306.15859375 521.4575 -306.76953125 522.49609375 C-308.25842249 525.64197686 -309.01003894 528.09687832 -309.22265625 531.56640625 C-308.56265625 532.55640625 -307.90265625 533.54640625 -307.22265625 534.56640625 C-303.36516928 535.18009736 -301.50229942 534.71445263 -298.03515625 532.87890625 C-294.33919491 529.8400047 -292.42150533 527.38918947 -291.89453125 522.55859375 C-291.9203125 521.52992188 -291.94609375 520.50125 -291.97265625 519.44140625 C-291.988125 518.40757812 -292.00359375 517.37375 -292.01953125 516.30859375 C-292.11666811 513.47556579 -292.11666811 513.47556579 -293.22265625 510.56640625 C-294.21265625 510.23640625 -295.20265625 509.90640625 -296.22265625 509.56640625 Z " fill="#000000" transform="translate(493.22265625,35.43359375)"/>
<path d="M0 0 C3.35765426 2.84352581 6.61208364 5.79612853 9.84570312 8.77929688 C10.50626709 9.38660645 11.16683105 9.99391602 11.84741211 10.61962891 C12.45915283 11.19567871 13.07089355 11.77172852 13.70117188 12.36523438 C14.24797607 12.87876465 14.79478027 13.39229492 15.3581543 13.92138672 C16.65820312 15.40429688 16.65820312 15.40429688 17.65820312 18.40429688 C18.31820312 18.40429688 18.97820312 18.40429688 19.65820312 18.40429688 C21.46384617 20.5747163 23.1353186 22.74270389 24.78320312 25.02929688 C25.27530273 25.70935791 25.76740234 26.38941895 26.27441406 27.09008789 C36.10956807 40.89737713 43.60706125 55.91219143 48.47070312 72.15429688 C48.66559326 72.80245361 48.8604834 73.45061035 49.0612793 74.1184082 C52.13346618 84.97599595 53.00763616 95.72396913 52.97387695 106.95703125 C52.97072683 109.1378841 52.99423726 111.3173613 53.01953125 113.49804688 C53.08007347 126.68380866 51.18358697 139.29807458 46.78320312 151.77929688 C46.52708252 152.52751709 46.27096191 153.2757373 46.00708008 154.04663086 C41.13709842 167.92540158 41.13709842 167.92540158 37.65820312 171.40429688 C34.6035045 171.50677444 31.57126975 171.54314259 28.51600647 171.53800964 C27.05901334 171.54140798 27.05901334 171.54140798 25.572586 171.54487497 C22.29129878 171.55124628 19.01005252 171.55038361 15.72875977 171.54956055 C13.38705898 171.55255008 11.04535869 171.55595213 8.70365906 171.55973816 C2.32361954 171.5686031 -4.05640659 171.57091731 -10.43645167 171.57155395 C-15.08349529 171.57238174 -19.7305359 171.57527779 -24.37757846 171.57839042 C-36.86538431 171.58670159 -49.35318303 171.5904319 -61.84099155 171.58972069 C-62.9057127 171.58966075 -62.9057127 171.58966075 -63.99194336 171.58959961 C-64.70261955 171.58955873 -65.41329575 171.58951785 -66.14550758 171.58947573 C-77.66745706 171.58906913 -89.18937387 171.59864095 -100.7113139 171.61273798 C-112.52902723 171.62708331 -124.34672462 171.63400918 -136.16444689 171.6331442 C-142.80440108 171.63281159 -149.44432515 171.63577925 -156.08427238 171.64632225 C-162.3263154 171.65596217 -168.56828586 171.6561108 -174.81033134 171.64880562 C-177.10738734 171.64775465 -179.40444776 171.65015271 -181.70149612 171.65616608 C-184.82528992 171.66381702 -187.94882876 171.65928733 -191.07261658 171.65153503 C-191.99215447 171.6566786 -192.91169236 171.66182216 -193.85909504 171.66712159 C-200.11352572 171.63256803 -200.11352572 171.63256803 -202.34179688 169.40429688 C-202.60744572 166.80670738 -202.60744572 166.80670738 -202.62940979 163.44711304 C-202.64227524 162.17697357 -202.65514069 160.90683411 -202.668396 159.59820557 C-202.67248188 158.18249579 -202.67631867 156.76678528 -202.67993164 155.35107422 C-202.69082274 153.86623567 -202.70249401 152.38140268 -202.71488953 150.89657593 C-202.74544975 146.85497546 -202.7624274 142.81343204 -202.77510571 138.77173948 C-202.78318486 136.24594598 -202.79336543 133.72016895 -202.80412102 131.19438553 C-202.83686109 123.28999393 -202.86075094 115.38564222 -202.87293488 107.48119199 C-202.88717634 98.36064607 -202.93099672 89.24087574 -203.00043637 80.12058675 C-203.05226354 73.06993809 -203.07711185 66.01950956 -203.08175701 58.96867335 C-203.08515223 54.75838246 -203.09996171 50.54887489 -203.1430378 46.33878708 C-203.18289073 42.37399323 -203.18915129 38.41052585 -203.17013741 34.44559097 C-203.16887464 32.99438174 -203.17948152 31.54310353 -203.2031517 30.09208679 C-203.39234092 17.78691302 -203.39234092 17.78691302 -198.97764587 12.68447876 C-197.78761494 11.56726851 -196.57654233 10.47188107 -195.34179688 9.40429688 C-194.33179605 8.30927069 -193.33023482 7.20632568 -192.34179688 6.09179688 C-141.97355327 -43.26232102 -53.67651908 -43.84159558 0 0 Z " fill="#F1AB3D" transform="translate(524.341796875,174.595703125)"/>
<path d="M0 0 C3.54080238 1.03273403 4.18370396 1.74181716 6 4.875 C6.37719816 7.53330654 6.37719816 7.53330654 6.38031673 10.63189602 C6.38875668 11.81416442 6.39719662 12.99643283 6.40589231 14.21452755 C6.39988227 15.51460611 6.39387222 16.81468467 6.38768005 18.15415955 C6.39185179 19.5482352 6.39732843 20.94230746 6.40399987 22.33637339 C6.41849433 26.17148227 6.41419736 30.00637698 6.40683305 33.84149778 C6.40211353 37.9758701 6.41460042 42.11019527 6.42485046 46.24455261 C6.44206772 54.34573418 6.44287243 62.44683829 6.43763756 70.54803341 C6.43360008 77.13114184 6.43503439 83.71422734 6.44038582 90.29733467 C6.44113424 91.2334212 6.44188266 92.16950772 6.44265376 93.1339605 C6.4441852 95.03547172 6.44572355 96.93698293 6.44726873 98.83849413 C6.46100435 116.68019931 6.45554862 134.52186067 6.44408352 152.36356486 C6.43414989 168.69442214 6.44709217 185.02516615 6.47101771 201.35600596 C6.49538652 218.11538246 6.50502206 234.87470615 6.49836498 251.63410002 C6.49486784 261.04689646 6.49713742 270.45960576 6.51461601 279.87238884 C6.52931029 287.88528817 6.53000988 295.898039 6.5125451 303.91093533 C6.50400976 308.00068875 6.50194695 312.09017655 6.51719666 316.17991638 C6.53097885 319.92236495 6.52636489 323.66431876 6.50695742 327.40673823 C6.50138335 329.40507589 6.51552274 331.40343833 6.53031152 333.40172905 C6.52049723 334.5866052 6.51068294 335.77148135 6.50057125 336.99226284 C6.50046391 338.01495972 6.50035658 339.0376566 6.50024599 340.0913443 C5.86051279 343.65118688 4.53697784 345.3371012 2 347.875 C-1.23632812 348.50610352 -1.23632812 348.50610352 -5.03125 348.50390625 C-5.70418091 348.50631821 -6.37711182 348.50873016 -7.07043457 348.51121521 C-8.48923655 348.51023833 -9.90807738 348.49688187 -11.32666016 348.47192383 C-13.49383478 348.43759765 -15.65693203 348.45126889 -17.82421875 348.47070312 C-19.20574646 348.4638043 -20.58726368 348.45413155 -21.96875 348.44140625 C-23.84723633 348.42509155 -23.84723633 348.42509155 -25.76367188 348.40844727 C-29.74498034 347.75220413 -30.6588516 347.13872382 -33 343.875 C-33.59132525 340.76852923 -33.53284125 337.70248186 -33.49829102 334.54833984 C-33.50656921 333.13313805 -33.50656921 333.13313805 -33.51501465 331.68934631 C-33.5243356 329.64265397 -33.52443905 327.59590364 -33.51642036 325.54920578 C-33.50381912 322.31356457 -33.51505255 319.07877991 -33.53245544 315.84317017 C-33.55918125 310.14586361 -33.5647499 304.44876628 -33.56335449 298.75140381 C-33.56112711 289.6243676 -33.57509383 280.49758946 -33.61894035 271.37065506 C-33.62881989 268.17635945 -33.62004137 264.98246516 -33.61024475 261.78817749 C-33.61638549 259.8397393 -33.62329605 257.89130332 -33.63110352 255.94287109 C-33.62338425 255.04932419 -33.61566498 254.15577728 -33.60771179 253.2351532 C-33.59459392 250.52764636 -33.59459392 250.52764636 -34 246.875 C-37.7472978 244.37680147 -39.69834913 244.62723204 -44.17773438 244.63208008 C-44.90487137 244.63018173 -45.63200836 244.62828339 -46.38117981 244.62632751 C-48.78547945 244.62262194 -51.18947718 244.63332101 -53.59375 244.64453125 C-55.26379358 244.64572333 -56.93383785 244.64617615 -58.60388184 244.6459198 C-62.10429073 244.64748431 -65.60459731 244.6557713 -69.10498047 244.66918945 C-73.59424342 244.68617921 -78.0833939 244.69000375 -82.57268524 244.68924427 C-86.02131221 244.68951607 -89.46991455 244.6949989 -92.91853333 244.70224571 C-94.57395745 244.7054302 -96.22938438 244.70739927 -97.8848114 244.70813942 C-100.19734461 244.71030531 -102.5097581 244.71905496 -104.82226562 244.72973633 C-106.13892212 244.73354813 -107.45557861 244.73735992 -108.81213379 244.74128723 C-112.02209417 244.72892413 -112.02209417 244.72892413 -115 245.875 C-115.72438435 247.51740359 -116.38196081 249.18969594 -117 250.875 C-118.0273122 252.62718342 -119.09892538 254.35381802 -120.203125 256.05859375 C-120.84636719 257.05697266 -121.48960937 258.05535156 -122.15234375 259.08398438 C-122.84457031 260.14939453 -123.53679687 261.21480469 -124.25 262.3125 C-124.97574525 263.43653607 -125.70099867 264.56088983 -126.42578125 265.68554688 C-127.9054523 267.98124547 -129.38679144 270.27585418 -130.86914062 272.56982422 C-133.93447961 277.32447124 -136.96844825 282.09876825 -140 286.875 C-145.65092872 295.7657622 -151.3238665 304.64228519 -157.01049805 313.51025391 C-160.36434792 318.74335625 -163.70504176 323.98405091 -167.01953125 329.2421875 C-167.65826172 330.25345703 -168.29699219 331.26472656 -168.95507812 332.30664062 C-170.16410951 334.22252947 -171.37000625 336.14040122 -172.57226562 338.06054688 C-173.11173828 338.91455078 -173.65121094 339.76855469 -174.20703125 340.6484375 C-174.6760083 341.39528809 -175.14498535 342.14213867 -175.62817383 342.91162109 C-178.95487162 347.6728426 -178.95487162 347.6728426 -182.0042572 348.26268005 C-182.76718582 348.26808304 -183.53011444 348.27348602 -184.31616211 348.27905273 C-185.6178257 348.29807899 -185.6178257 348.29807899 -186.94578552 348.31748962 C-187.88019974 348.31455399 -188.81461395 348.31161835 -189.77734375 348.30859375 C-190.74023819 348.3138356 -191.70313263 348.31907745 -192.69520569 348.32447815 C-194.73193396 348.33090251 -196.76869931 348.32955601 -198.80541992 348.32104492 C-201.92238471 348.31254124 -205.03751352 348.34128065 -208.15429688 348.37304688 C-210.13281195 348.37465911 -212.11133027 348.37408093 -214.08984375 348.37109375 C-215.48842873 348.38794472 -215.48842873 348.38794472 -216.91526794 348.40513611 C-223.34530859 348.33587676 -223.34530859 348.33587676 -226.60766602 346.03930664 C-228.25157606 343.48393885 -228.42314155 341.83847996 -227.78100586 338.87231445 C-226.86754749 336.53627104 -225.67732744 334.81711197 -224.19140625 332.79296875 C-220.80237211 328.05461691 -217.55951271 323.23776425 -214.359375 318.37109375 C-213.84018997 317.58204651 -213.32100494 316.79299927 -212.78608704 315.9800415 C-211.10627797 313.42492414 -209.42814855 310.8687082 -207.75 308.3125 C-206.55158841 306.4894807 -205.35301758 304.66656606 -204.15429688 302.84375 C-201.66800489 299.062741 -199.18239347 295.28128596 -196.69726562 291.49951172 C-191.52616668 283.63145509 -186.34671781 275.76890077 -181.1673584 267.90628052 C-178.36117916 263.64611255 -175.55562313 259.38553421 -172.75 255.125 C-171.62500294 253.41666473 -170.50000294 251.7083314 -169.375 250 C-168.818125 249.154375 -168.26125 248.30875 -167.6875 247.4375 C-148 217.54166667 -128.3125 187.64583333 -108.625 157.75 C-108.06813507 156.90439011 -107.51127014 156.05878021 -106.93753052 155.18754578 C-105.81242948 153.4790594 -104.68732776 151.77057348 -103.56222534 150.06208801 C-100.75126547 145.79359999 -97.9403176 141.52510406 -95.12939453 137.2565918 C-89.47975881 128.67739599 -83.82991774 120.09833552 -78.1796875 111.51953125 C-72.00877391 102.15010326 -65.83867817 92.78013699 -59.66906738 83.40985107 C-57.98878542 80.85796816 -56.30836846 78.30617418 -54.62792969 75.75439453 C-51.33467016 70.75333527 -48.04203175 65.75186756 -44.75 60.75 C-44.22594574 59.95377228 -43.70189148 59.15754456 -43.16195679 58.33718872 C-36.98251333 48.94687098 -30.81944996 39.54641839 -24.6875 30.125 C-23.00068025 27.53737164 -21.31307706 24.95025912 -19.62451172 22.36376953 C-18.50537261 20.64923631 -17.38726921 18.93402675 -16.27001953 17.21826172 C-14.60278598 14.6622749 -12.92759753 12.11169277 -11.25 9.5625 C-10.75975342 8.80807617 -10.26950684 8.05365234 -9.7644043 7.27636719 C-9.31105713 6.5909082 -8.85770996 5.90544922 -8.390625 5.19921875 C-7.99907227 4.60197998 -7.60751953 4.00474121 -7.20410156 3.3894043 C-4.99979299 0.61703486 -3.51157136 -0.14631547 0 0 Z " fill="#FCFCFC" transform="translate(279,207.125)"/>
<path d="M0 0 C0.98806641 -0.00306152 1.97613281 -0.00612305 2.99414062 -0.00927734 C4.04279297 0.01312012 5.09144531 0.03551758 6.171875 0.05859375 C7.79125977 0.08058838 7.79125977 0.08058838 9.44335938 0.10302734 C34.05888471 0.679151 57.28086343 9.01073816 74.921875 26.49609375 C95.60402305 49.08977367 96.95145255 79.48107313 95.921875 108.49609375 C94.42015699 129.27711426 84.55237987 150.6664736 68.921875 164.49609375 C52.39763739 177.72552897 30.95369207 184.7868096 9.921875 185.49609375 C8.79523438 185.53605469 7.66859375 185.57601562 6.5078125 185.6171875 C-3.644057 185.80851985 -3.644057 185.80851985 -7.078125 183.49609375 C-9.55230353 179.78482595 -9.33402957 177.91454205 -9.34555054 173.48060608 C-9.35008165 172.76215985 -9.35461276 172.04371363 -9.35928118 171.3034963 C-9.3719678 168.88984735 -9.3703021 166.4764228 -9.36865234 164.06274414 C-9.3746349 162.33482064 -9.38143981 160.60689983 -9.38900757 158.87898254 C-9.40670148 154.1806801 -9.41136434 149.48245047 -9.41263914 144.78411794 C-9.4145363 140.86497393 -9.42189163 136.94584696 -9.42898333 133.0267095 C-9.44527738 123.7825274 -9.45015131 114.53838426 -9.44873047 105.29418945 C-9.4475284 95.75051854 -9.46864094 86.20707356 -9.5002178 76.66345984 C-9.52634557 68.47570798 -9.53709926 60.28803008 -9.53581965 52.10023683 C-9.53530903 47.20734403 -9.54104718 42.31465198 -9.56217575 37.42180061 C-9.58149961 32.82117326 -9.58172294 28.22093938 -9.56714249 23.62029839 C-9.56504606 21.93039757 -9.56980466 20.2404725 -9.5818634 18.5506134 C-9.59724492 16.24613082 -9.58805648 13.94301706 -9.57260132 11.63856506 C-9.57369085 10.34826417 -9.57478039 9.05796328 -9.57590294 7.72856236 C-8.68645135 1.95264479 -5.61370905 -0.01178489 0 0 Z " fill="#FCFCFC" transform="translate(317.078125,370.50390625)"/>
<path d="M0 0 C0.90878906 -0.00644531 1.81757813 -0.01289063 2.75390625 -0.01953125 C3.69105469 -0.00019531 4.62820313 0.01914062 5.59375 0.0390625 C6.99947266 0.01005859 6.99947266 0.01005859 8.43359375 -0.01953125 C12.99816841 0.01284162 15.33470793 0.07166421 19.01171875 2.94140625 C19.69878906 3.83988281 20.38585937 4.73835938 21.09375 5.6640625 C21.73957031 6.35886719 22.38539063 7.05367188 23.05078125 7.76953125 C27.10296968 12.31651322 30.98660164 16.95852264 34.765625 21.734375 C37.66130741 25.37827065 40.59446693 28.99076364 43.53125 32.6015625 C44.09021973 33.28911621 44.64918945 33.97666992 45.22509766 34.68505859 C49.20348885 39.57591418 53.19240488 44.45800847 57.19140625 49.33203125 C58.54693406 50.99373578 59.86488169 52.68639618 61.15625 54.3984375 C62.96489249 56.89073875 62.96489249 56.89073875 66.03125 57.7265625 C70.08968628 57.64373727 71.11593246 56.38082323 74.09375 53.6640625 C75.86794952 51.54441915 77.55775846 49.42986276 79.21875 47.2265625 C82.96401574 42.35573339 86.78651885 37.58272993 90.78125 32.9140625 C94.6467719 28.38915196 98.4191393 23.80428089 102.12109375 19.14453125 C104.3280814 16.36940817 106.54880678 13.60625767 108.78125 10.8515625 C109.48636719 9.97886719 110.19148437 9.10617187 110.91796875 8.20703125 C111.63597656 7.36785156 112.35398437 6.52867187 113.09375 5.6640625 C113.79113281 4.74496094 114.48851562 3.82585937 115.20703125 2.87890625 C119.50280036 -0.41703568 123.32396447 -0.0696676 128.59375 0.0390625 C129.53089844 0.01972656 130.46804688 0.00039063 131.43359375 -0.01953125 C132.34238281 -0.01308594 133.25117187 -0.00664062 134.1875 0 C135.00927734 0.00563965 135.83105469 0.0112793 136.67773438 0.01708984 C140.28169746 0.98217697 141.74722435 2.80423597 144.09375 5.6640625 C144.72016239 9.00116825 144.72016239 9.00116825 144.72193909 12.88209534 C144.72903347 13.59816686 144.73612786 14.31423838 144.74343723 15.05200905 C144.76100848 17.44611105 144.74291893 19.83858757 144.72485352 22.23266602 C144.72999267 23.95103697 144.73727392 25.66940267 144.74653625 27.38775635 C144.76505772 32.05100165 144.75210763 36.71367555 144.73244596 41.3768971 C144.71606691 46.25574239 144.72487119 51.13455128 144.72996521 56.01341248 C144.73448657 64.20556778 144.71861263 72.39749478 144.69067383 80.58959961 C144.65861105 90.06404476 144.65864166 99.53807838 144.6758886 109.0125528 C144.69174481 118.1242194 144.68502666 127.23573496 144.66795158 136.34739494 C144.66107472 140.2265315 144.66212001 144.10554721 144.66949654 147.98468208 C144.67715021 152.55091982 144.66506346 157.11668838 144.63764763 161.68284607 C144.63075344 163.35982813 144.63067689 165.03685393 144.63786316 166.71383476 C144.64653491 169.00075345 144.63064289 171.28621652 144.6084137 173.57301331 C144.60560678 174.85334222 144.60279985 176.13367113 144.59990788 177.45279789 C144.00606957 181.22034161 143.06708329 182.363475 140.09375 184.6640625 C137.10669343 186.15759079 134.0556249 185.92974112 130.78125 185.9765625 C128.80705078 186.03263672 128.80705078 186.03263672 126.79296875 186.08984375 C122.59152168 185.60625586 121.02998513 184.63335093 118.09375 181.6640625 C116.82710809 179.13077867 116.96905263 177.38291194 116.96917725 174.54640198 C116.96661423 173.46256226 116.96405121 172.37872253 116.96141052 171.26203918 C116.96351028 170.0676976 116.96561005 168.87335602 116.96777344 167.64282227 C116.9659053 166.38913849 116.96403717 165.13545471 116.96211243 163.84378052 C116.95810053 161.11384559 116.95575927 158.3839573 116.95565033 155.65402412 C116.9545115 151.33896689 116.94168487 147.0239955 116.92608643 142.70896912 C116.92351357 141.98123356 116.92094072 141.253498 116.9182899 140.50370985 C116.9130233 139.01550604 116.90773782 137.5273023 116.90243387 136.03909862 C116.86729574 125.99114032 116.84077455 115.94328849 116.84326172 105.89526367 C116.84484862 99.12012665 116.82885552 92.34528182 116.79255509 85.57023853 C116.7740659 81.98347425 116.76477738 78.39719799 116.77703094 74.81039619 C116.7905602 70.81142409 116.76558158 66.81359221 116.73730469 62.81469727 C116.75259972 61.02622124 116.75259972 61.02622124 116.76820374 59.20161438 C116.74744026 57.57162506 116.74744026 57.57162506 116.72625732 55.90870667 C116.72405748 54.48981565 116.72405748 54.48981565 116.7218132 53.04226017 C116.28743907 50.43611252 116.28743907 50.43611252 113.74684525 48.80233669 C111.08828482 47.3749312 111.08828482 47.3749312 108.01171875 48.20703125 C104.8173981 49.80205348 103.49222998 51.11244167 101.40625 53.9765625 C98.25106293 58.15733619 95.00103529 62.18977404 91.59375 66.1640625 C88.27859534 70.05287366 85.01848715 73.97122551 81.84375 77.9765625 C81.20953125 78.76417969 80.5753125 79.55179687 79.921875 80.36328125 C78.6957651 81.9063982 77.4978069 83.47227737 76.328125 85.05859375 C71.57682116 91.1689417 71.57682116 91.1689417 67.21875 91.7890625 C62.07322629 91.23278967 59.4198265 87.29478235 56.3125 83.51171875 C55.5803125 82.57199219 54.848125 81.63226563 54.09375 80.6640625 C53.4234375 79.83777344 52.753125 79.01148438 52.0625 78.16015625 C50.73863639 76.52371374 49.42495777 74.87898423 48.12109375 73.2265625 C45.25819057 69.60794114 42.33200381 66.04329253 39.390625 62.48828125 C37.8049578 60.5385578 36.25470152 58.55968577 34.734375 56.55859375 C33.96609375 55.56214844 33.1978125 54.56570313 32.40625 53.5390625 C31.37951172 52.17394531 31.37951172 52.17394531 30.33203125 50.78125 C27.53223938 48.13293029 25.93573616 47.59356734 22.09375 47.6640625 C19.50149052 49.67480269 18.2501487 50.89174424 17.59152794 54.144104 C17.58989364 55.54665436 17.58989364 55.54665436 17.58822632 56.97753906 C17.57720383 58.0542688 17.56618134 59.13099854 17.55482483 60.24035645 C17.56299728 61.41658569 17.57116974 62.59281494 17.57958984 63.8046875 C17.57246475 65.04730347 17.56533966 66.28991943 17.55799866 67.57019043 C17.54531549 70.27046705 17.5398561 72.96961243 17.54676437 75.6697998 C17.55755156 79.9391973 17.54016866 84.20819777 17.51895142 88.47753906 C17.48869436 95.23002565 17.47699694 101.98239463 17.47337496 108.73494339 C17.46672677 120.82808004 17.43772557 132.92113517 17.3882786 145.0141716 C17.37177957 149.25811162 17.36636407 153.50188061 17.36986899 157.74584961 C17.37040862 161.00506307 17.358617 164.26424014 17.34912109 167.5234375 C17.35324509 168.69966675 17.35736908 169.875896 17.36161804 171.08776855 C17.35354378 172.70286316 17.35354378 172.70286316 17.3453064 174.35058594 C17.34497091 175.28561951 17.34463543 176.22065308 17.34428978 177.184021 C17.07810121 179.81896664 16.48828433 181.42805518 15.09375 183.6640625 C11.60447184 186.24202331 7.87161899 185.99728481 3.65625 186.0390625 C2.35816406 186.06742188 1.06007813 186.09578125 -0.27734375 186.125 C-4.41295825 185.59970128 -6.00158934 184.58501097 -8.90625 181.6640625 C-10.37326176 178.73003898 -10.04582485 176.12874425 -10.06015015 172.85148621 C-10.0645324 172.14276707 -10.06891465 171.43404794 -10.0734297 170.70385247 C-10.08683778 168.31713274 -10.09300103 165.93044995 -10.09912109 163.54370117 C-10.10702043 161.83725313 -10.11528927 160.13080677 -10.12390137 158.42436218 C-10.15013916 152.81026814 -10.16542991 147.19616657 -10.1796875 141.58203125 C-10.1850463 139.65113126 -10.1904238 137.72023132 -10.19581985 135.78933144 C-10.2174504 127.7590649 -10.23618825 119.72880039 -10.24744225 111.69851208 C-10.26368883 100.18062262 -10.29688179 88.66307013 -10.35384309 77.14530772 C-10.3925084 69.05183788 -10.41207084 60.9584583 -10.41736281 52.8648985 C-10.42102072 48.02833694 -10.43308853 43.19213463 -10.46546555 38.35567284 C-10.49548659 33.8059037 -10.50187947 29.2567123 -10.49008179 24.70686531 C-10.48986056 23.03672002 -10.49820657 21.36654838 -10.51573563 19.69649506 C-10.53836799 17.41616138 -10.53016264 15.13793329 -10.51425171 12.85758972 C-10.51756186 11.58166049 -10.520872 10.30573126 -10.52428246 8.9911375 C-9.4511309 3.21400445 -5.85227831 0.04016269 0 0 Z " fill="#FCFCFC" transform="translate(436.90625,370.3359375)"/>
<path d="M0 0 C13.31932512 3.3025695 22.48162865 10.23331866 29.796875 21.625 C36.32679774 33.23375154 38.01095835 46.49618384 37.9375 59.625 C37.93012817 61.19652832 37.93012817 61.19652832 37.92260742 62.79980469 C37.67559299 79.24209844 34.31825917 95.61479493 22.625 107.875 C14.26332729 115.85000576 4.49363611 119.76582087 -6.8125 121.4375 C-7.48676025 121.54747314 -8.16102051 121.65744629 -8.85571289 121.77075195 C-12.09011103 122.1569065 -14.12699977 121.99734808 -17.05845642 120.55114746 C-20.67328316 116.37518052 -20.06544956 112.2809164 -20.00610352 106.92773438 C-20.01325882 105.81191483 -20.02041412 104.69609528 -20.02778625 103.54646301 C-20.04471224 99.85347714 -20.02524615 96.16169846 -20.00390625 92.46875 C-20.00473458 89.90572 -20.00719259 87.34269006 -20.01121521 84.77966309 C-20.01407592 79.40615486 -19.99987331 74.0330946 -19.97192383 68.65966797 C-19.93987185 62.44968661 -19.93988765 56.24033324 -19.9571386 50.03030729 C-19.97300967 44.05333957 -19.96616939 38.07666398 -19.94920158 32.09968567 C-19.94401177 29.55752579 -19.94451121 27.01534783 -19.95074654 24.47319031 C-19.95618595 20.92248403 -19.93586237 17.37284983 -19.90844727 13.82226562 C-19.91497314 12.76759598 -19.92149902 11.71292633 -19.92822266 10.626297 C-19.83526226 3.55921027 -19.83526226 3.55921027 -17.5877533 0.21813965 C-12.33729453 -2.96888502 -5.69806786 -1.13148315 0 0 Z " fill="#000000" transform="translate(353.375,405.125)"/>
<path d="M0 0 C3.4375 0.375 3.4375 0.375 5.4375 2.375 C5.64632138 4.94823561 5.73115823 7.41478166 5.72802734 9.98999023 C5.73474457 10.77550262 5.74146179 11.56101501 5.74838257 12.37033081 C5.76742758 14.97481559 5.77128994 17.57904361 5.7734375 20.18359375 C5.77986067 21.98958951 5.78658866 23.79558422 5.79360962 25.60157776 C5.80559849 29.39041558 5.80928877 33.17916212 5.80810547 36.96801758 C5.80790213 41.82857395 5.83521207 46.68854658 5.86964989 51.5489645 C5.89186148 55.27983806 5.89594479 59.01056984 5.89488602 62.74150276 C5.89725035 64.53371252 5.90612045 66.32592571 5.92155075 68.1180706 C5.94109638 70.62267086 5.93541872 73.12599546 5.92333984 75.63061523 C5.93457886 76.37409714 5.94581787 77.11757904 5.95739746 77.8835907 C5.91828972 81.06657566 5.85532293 82.90132801 3.70793152 85.33575439 C1.14607713 86.50839312 -0.56350755 86.7494345 -3.37524414 86.74731445 C-4.32625504 86.75354324 -5.27726593 86.75977203 -6.25709534 86.76618958 C-7.27698044 86.75697983 -8.29686554 86.74777008 -9.34765625 86.73828125 C-10.4002916 86.73877975 -11.45292694 86.73927826 -12.53746033 86.73979187 C-14.76075124 86.73745303 -16.98404488 86.72773573 -19.20727539 86.71118164 C-22.61563707 86.68756488 -26.02321778 86.69062536 -29.43164062 86.69726562 C-31.59115051 86.69168963 -33.75065709 86.68458025 -35.91015625 86.67578125 C-36.93206558 86.67669266 -37.95397491 86.67760406 -39.0068512 86.67854309 C-39.95470993 86.66901108 -40.90256866 86.65947906 -41.87915039 86.6496582 C-42.71313858 86.64505081 -43.54712677 86.64044342 -44.40638733 86.63569641 C-46.5625 86.375 -46.5625 86.375 -49.5625 84.375 C-50.81219308 77.47921157 -47.45329592 73.00004864 -43.875 67.3125 C-42.66759974 65.33355843 -41.46057848 63.35438557 -40.25390625 61.375 C-39.63531738 60.37210937 -39.01672852 59.36921875 -38.37939453 58.3359375 C-35.63369737 53.86135874 -32.97380138 49.33759427 -30.3125 44.8125 C-29.24740995 43.0117104 -28.18230528 41.21092945 -27.1171875 39.41015625 C-24.4216407 34.84231398 -21.74341235 30.26458644 -19.0703125 25.68359375 C-18.29462388 24.35553405 -17.51890776 23.02749042 -16.74316406 21.69946289 C-15.22936123 19.10778302 -13.71882031 16.514238 -12.20996094 13.91967773 C-11.51249145 12.72502662 -10.81490581 11.53044331 -10.1171875 10.3359375 C-9.50343262 9.28196777 -8.88967773 8.22799805 -8.25732422 7.14208984 C-4.15043222 0.4368876 -4.15043222 0.4368876 0 0 Z " fill="#000000" transform="translate(241.5625,328.625)"/>
<path d="M0 0 C3.50975593 0.34409372 5.33614101 1.29977601 8.1875 3.3125 C7.94647236 12.36107929 4.28192192 19.86870014 0.6875 28 C-0.27142349 30.20455158 -1.2262283 32.41085901 -2.1809845 34.61721802 C-2.81689702 36.08568 -3.4542516 37.55351836 -4.09306335 39.02072144 C-7.26826464 46.32109085 -10.26951365 53.68889262 -13.234375 61.0769043 C-13.56566406 61.89715088 -13.89695312 62.71739746 -14.23828125 63.5625 C-14.52098877 64.26890625 -14.80369629 64.9753125 -15.0949707 65.703125 C-15.8125 67.3125 -15.8125 67.3125 -16.8125 68.3125 C-18.7734375 68.296875 -18.7734375 68.296875 -21.1875 68.0625 C-21.97898437 67.99546875 -22.77046875 67.9284375 -23.5859375 67.859375 C-26.29722406 67.19344497 -27.32018594 66.68802034 -28.8125 64.3125 C-28.38061708 58.88407991 -26.31075604 54.236804 -24.20703125 49.28515625 C-23.84534348 48.4191832 -23.4836557 47.55321014 -23.11100769 46.66099548 C-21.95499108 43.89644327 -20.79033364 41.13563604 -19.625 38.375 C-18.48277294 35.65394733 -17.34237039 32.93213761 -16.2026062 30.21005249 C-15.45910331 28.43525546 -14.71426311 26.66101804 -13.9680481 24.88735962 C-11.20865888 18.31453573 -8.57297539 11.70047878 -6.01049805 5.04858398 C-4.47966309 1.55234038 -3.86707362 0.42967485 0 0 Z " fill="#F39930" transform="translate(525.8125,54.6875)"/>
<path d="M0 0 C2.49088536 2.8230034 2.9746968 4.55297679 3.1875 8.3125 C3.0946875 9.6428125 3.0946875 9.6428125 3 11 C-3.83137711 14.52973631 -10.74654959 17.66716751 -17.86328125 20.57421875 C-18.85829147 20.98412552 -19.8533017 21.39403229 -20.87846375 21.81636047 C-24.02170623 23.11026641 -27.16706251 24.39894061 -30.3125 25.6875 C-32.44089502 26.56281116 -34.56915149 27.4384593 -36.69726562 28.31445312 C-48.250013 33.06657415 -48.250013 33.06657415 -53 35 C-53.86509689 35.37030838 -54.73019379 35.74061676 -55.62150574 36.12214661 C-58.59260821 37.21871952 -60.06667469 37.18918593 -63 36 C-65.16789459 32.38684234 -65.19258541 29.14058636 -65 25 C-55.50722152 19.87865218 -45.47808587 15.98999843 -35.5 11.9375 C-33.75115906 11.22365758 -32.00246008 10.50946727 -30.25390625 9.79492188 C-26.19113092 8.1358238 -22.12538159 6.48419473 -18.05813599 4.83609009 C-16.26207824 4.10646576 -14.46858254 3.37054098 -12.67553711 2.63354492 C-11.7913208 2.27236572 -10.90710449 1.91118652 -9.99609375 1.5390625 C-9.28380615 1.24596191 -8.57151855 0.95286133 -7.83764648 0.65087891 C-5.0201466 -0.34705582 -2.92324804 -0.64168859 0 0 Z " fill="#F49930" transform="translate(659,183)"/>
<path d="M0 0 C4.74430671 1.29448108 9.18520526 3.1194209 13.71557617 5.02050781 C14.70201614 5.42895935 15.68845612 5.83741089 16.70478821 6.25823975 C18.7896059 7.12282521 20.87317449 7.99042802 22.95556641 8.86083984 C26.11060036 10.1795275 29.26912101 11.48953276 32.4284668 12.79785156 C34.46188157 13.64239423 36.49509128 14.48743085 38.52807617 15.33300781 C39.92397224 15.9129953 39.92397224 15.9129953 41.34806824 16.50469971 C59.68767207 24.17619746 59.68767207 24.17619746 61.45385742 25.94238281 C60.85752715 33.33687823 60.85752715 33.33687823 58.45385742 36.94238281 C53.12571229 37.72983998 49.06170143 35.84784262 44.29370117 33.75878906 C43.51443771 33.42753525 42.73517426 33.09628143 41.93229675 32.75498962 C39.41418465 31.68173364 36.9028434 30.59354218 34.39135742 29.50488281 C32.67090534 28.76823854 30.95003819 28.03256291 29.22875977 27.29785156 C25.04651835 25.51015829 20.86933001 23.71101001 16.69366455 21.90802002 C13.55838736 20.55632314 10.41853433 19.21559331 7.27807617 17.87597656 C2.66579063 15.90777219 -1.94208156 13.92974728 -6.54614258 11.94238281 C-6.45867974 10.50376987 -6.3504891 9.06640773 -6.23364258 7.62988281 C-6.17563477 6.829375 -6.11762695 6.02886719 -6.05786133 5.20410156 C-5.54614258 2.94238281 -5.54614258 2.94238281 -4.37817383 1.08691406 C-2.54614258 -0.05761719 -2.54614258 -0.05761719 0 0 Z " fill="#F39930" transform="translate(600.546142578125,341.0576171875)"/>
<path d="M0 0 C3.39462242 4.54502224 5.24479198 10.15721115 7.375 15.375 C10.0919297 21.99741888 12.81828078 28.61147814 15.66345215 35.17980957 C16.87975904 37.98822581 18.08645465 40.80073387 19.29302979 43.61334229 C19.88738755 44.99157906 20.48628177 46.36786871 21.08978271 47.74212646 C21.94047397 49.6811753 22.77448195 51.62666053 23.60546875 53.57421875 C24.09168701 54.69401123 24.57790527 55.81380371 25.07885742 56.9675293 C26.06540158 60.21530691 26.1285767 61.82589993 25 65 C21.32171064 68.04772547 18.64377966 68.1220357 14 68 C7.91421454 54.43620661 1.99024259 40.80353889 -3.73675537 27.08441162 C-4.36851113 25.57475992 -5.00394799 24.06664319 -5.64312744 22.56011963 C-6.54735955 20.42582035 -7.43744681 18.2861335 -8.32421875 16.14453125 C-8.59557144 15.5110527 -8.86692413 14.87757416 -9.14649963 14.22489929 C-10.72770203 10.35251719 -11.4693653 7.17769488 -11 3 C-7.58900667 -0.0097 -4.4679996 -0.77704341 0 0 Z " fill="#F49930" transform="translate(350,55)"/>
<path d="M0 0 C2.55703082 2.35515996 3.83490338 3.91175422 4.36051941 7.37638855 C3.86643356 10.97200436 2.40260934 12.23173705 -0.14331055 14.7902832 C-1.04812668 15.71086014 -1.95294281 16.63143707 -2.88517761 17.57991028 C-3.88505751 18.57084055 -4.88558732 19.56111541 -5.88671875 20.55078125 C-6.90680502 21.57423633 -7.92614814 22.5984326 -8.94477844 23.62333679 C-11.08136891 25.76729541 -13.22673279 27.90195855 -15.37866211 30.03051758 C-18.13533267 32.75870068 -20.86894575 35.50871799 -23.59637737 38.26609516 C-25.6969019 40.38469402 -27.80919879 42.49123084 -29.92524147 44.5943203 C-30.93800724 45.60375245 -31.94707682 46.61690716 -32.95233727 47.63381386 C-34.35935676 49.05354091 -35.78417891 50.45555759 -37.2097168 51.85668945 C-38.4188398 53.0598455 -38.4188398 53.0598455 -39.65238953 54.28730774 C-42 56 -42 56 -44.62361145 56.39567566 C-48.31986483 55.78023864 -49.75255788 53.88956845 -52 51 C-52.39468384 48.62361145 -52.39468384 48.62361145 -52 46 C-50.29403687 43.65238953 -50.29403687 43.65238953 -47.87255859 41.2097168 C-46.97097015 40.28913986 -46.06938171 39.36856293 -45.14047241 38.42008972 C-44.14383669 37.42908561 -43.14647356 36.43881258 -42.1484375 35.44921875 C-41.13081863 34.4256906 -40.11387029 33.40149538 -39.0975647 32.37666321 C-36.96533326 30.23255221 -34.82406956 28.09799397 -32.67626953 25.96948242 C-29.92686414 23.24295485 -27.2030535 20.49238513 -24.48575401 17.73390484 C-22.39110793 15.61366281 -20.28254768 13.50770547 -18.16963577 11.4056797 C-17.15959642 10.39712588 -16.15412325 9.38397731 -15.15339279 8.36618614 C-13.75134129 6.94414112 -12.32797394 5.54320823 -10.90380859 4.14331055 C-10.0999472 3.34120651 -9.29608582 2.53910248 -8.46786499 1.71269226 C-5.39024513 -0.42316839 -3.67358607 -0.5114618 0 0 Z " fill="#F59A30" transform="translate(607,106)"/>
<path d="M0 0 C3.57901598 0.53976343 4.86059882 1.99829073 7.41389465 4.53898621 C8.33447159 5.44380234 9.25504852 6.34861847 10.20352173 7.28085327 C11.194452 8.28073317 12.18472686 9.28126298 13.1743927 10.28239441 C14.19784778 11.30248068 15.22204405 12.3218238 16.24694824 13.3404541 C18.39090686 15.47704457 20.52557 17.62240845 22.65412903 19.77433777 C25.38231213 22.53100833 28.13232944 25.26462141 30.88970661 27.99205303 C33.00830547 30.09257755 35.11484229 32.20487445 37.21793175 34.32091713 C38.2273639 35.3336829 39.24051861 36.34275248 40.25742531 37.34801292 C41.67715236 38.75503242 43.07916904 40.17985457 44.4803009 41.60539246 C45.28240494 42.41147446 46.08450897 43.21755646 46.91091919 44.04806519 C48.62361145 46.39567566 48.62361145 46.39567566 49.01928711 49.01928711 C48.40385009 52.71554049 46.5131799 54.14823354 43.62361145 56.39567566 C41.2472229 56.79135132 41.2472229 56.79135132 38.62361145 56.39567566 C36.27600098 54.6829834 36.27600098 54.6829834 33.83332825 52.25236511 C32.91275131 51.34754898 31.99217438 50.44273285 31.04370117 49.51049805 C30.0527709 48.51061815 29.06249604 47.51008834 28.0728302 46.50895691 C27.04937512 45.48887064 26.02517885 44.46952752 25.00027466 43.45089722 C22.85631604 41.31430675 20.7216529 39.16894287 18.59309387 37.01701355 C15.86491077 34.26034299 13.11489346 31.52672991 10.35751629 28.79929829 C8.23891743 26.69877376 6.13238061 24.58647687 4.02929115 22.47043419 C3.019859 21.45766841 2.00670429 20.44859884 0.98979759 19.44333839 C-0.42992946 18.0363189 -1.83194614 16.61149675 -3.233078 15.18595886 C-4.03518204 14.37987686 -4.83728607 13.57379486 -5.66369629 12.74328613 C-7.37638855 10.39567566 -7.37638855 10.39567566 -7.77206421 7.77206421 C-7.06718814 3.53864886 -4.23341535 0.70487606 0 0 Z " fill="#F59A30" transform="translate(269.3763885498047,105.60432434082031)"/>
<path d="M0 0 C0.99 0.66 1.98 1.32 3 2 C3.3742218 4.80859375 3.3742218 4.80859375 3.37231445 8.4375 C3.37596512 9.09782227 3.37961578 9.75814453 3.38337708 10.43847656 C3.39149748 12.62591092 3.37786108 14.81260791 3.36328125 17 C3.36276282 18.51692708 3.36327986 20.03385484 3.36479187 21.55078125 C3.36470208 24.73187269 3.35425924 27.91271105 3.33618164 31.09375 C3.31349405 35.17629625 3.31294957 39.25847252 3.31969929 43.34106445 C3.32303692 46.47399193 3.3164131 49.60683467 3.30657005 52.73974609 C3.3027142 54.24527544 3.30157143 55.75081421 3.3031559 57.25634766 C3.30352577 59.3585819 3.29092906 61.46033749 3.2746582 63.5625 C3.27005081 64.76003906 3.26544342 65.95757812 3.26069641 67.19140625 C3 70 3 70 1 72 C-1.09375 72.265625 -1.09375 72.265625 -3.5 72.25 C-4.2940625 72.25515625 -5.088125 72.2603125 -5.90625 72.265625 C-8 72 -8 72 -10 70 C-10.26069641 67.19140625 -10.26069641 67.19140625 -10.2746582 63.5625 C-10.27976913 62.90217773 -10.28488007 62.24185547 -10.29014587 61.56152344 C-10.30407003 59.37425731 -10.30308324 57.18730523 -10.30078125 55 C-10.3046663 53.48307172 -10.30900057 51.96614452 -10.31376648 50.44921875 C-10.3212345 47.26819331 -10.320933 44.08727884 -10.31567383 40.90625 C-10.30987466 36.82363587 -10.32681775 32.74147474 -10.3500185 28.65893555 C-10.36472714 25.52601451 -10.36563156 22.39320335 -10.36250877 19.26025391 C-10.36302332 17.75471091 -10.36828588 16.24916198 -10.37832069 14.74365234 C-10.39061457 12.6412991 -10.38393746 10.53983823 -10.37231445 8.4375 C-10.37294388 7.23996094 -10.3735733 6.04242188 -10.3742218 4.80859375 C-10.25072861 3.88175781 -10.12723541 2.95492187 -10 2 C-6.31282562 -0.45811625 -4.35654296 -0.31118164 0 0 Z " fill="#F69B30" transform="translate(440,37)"/>
<path d="M0 0 C1.00730415 -0.00262848 1.00730415 -0.00262848 2.03495789 -0.00531006 C4.26486765 -0.00972777 6.49469874 -0.00679089 8.72460938 -0.00341797 C10.26778173 -0.00409103 11.81095398 -0.00506108 13.35412598 -0.00631714 C16.59237678 -0.007794 19.83060005 -0.00563993 23.06884766 -0.00097656 C27.2287846 0.00472073 31.38865704 0.00144166 35.54859161 -0.00454903 C38.73635345 -0.00815496 41.92409989 -0.00701591 45.11186218 -0.00442123 C46.6461335 -0.00375205 48.1804062 -0.00458008 49.7146759 -0.00690079 C51.85539478 -0.00942784 53.9960078 -0.00558601 56.13671875 0 C57.96752991 0.00119339 57.96752991 0.00119339 59.83532715 0.00241089 C62.56835938 0.12939453 62.56835938 0.12939453 63.56835938 1.12939453 C63.66687108 2.96055336 63.69808567 4.79559386 63.69335938 6.62939453 C63.69722656 8.12986328 63.69722656 8.12986328 63.70117188 9.66064453 C63.56835938 12.12939453 63.56835938 12.12939453 62.56835938 13.12939453 C60.4624151 13.23414011 58.35292171 13.2679591 56.24438477 13.2746582 C55.25412041 13.27969612 55.25412041 13.27969612 54.24385071 13.28483582 C52.05122012 13.29437148 49.85866568 13.29629024 47.66601562 13.29736328 C46.14765897 13.30057408 44.62930264 13.30393802 43.11094666 13.30744934 C39.92397341 13.31344719 36.73702732 13.31528858 33.55004883 13.31469727 C29.45966338 13.31459561 25.3694514 13.32824796 21.27910709 13.34546947 C18.14191381 13.35657024 15.00476272 13.35861707 11.8675518 13.35808754 C10.35922078 13.35927056 8.85088877 13.36371028 7.34257698 13.37141991 C5.23550278 13.38118115 3.1288084 13.37835735 1.02172852 13.37231445 C-0.17882675 13.37373947 -1.37938202 13.37516449 -2.61631775 13.37663269 C-5.43164062 13.12939453 -5.43164062 13.12939453 -7.43164062 11.12939453 C-7.66210938 8.78173828 -7.66210938 8.78173828 -7.61914062 6.06689453 C-7.61269531 5.16841797 -7.60625 4.26994141 -7.59960938 3.34423828 C-7.24986737 -1.26747609 -3.93275765 0.00256352 0 0 Z " fill="#F69B30" transform="translate(615.431640625,273.87060546875)"/>
<path d="M0 0 C13 0 13 0 18 4 C18.58366955 8.01272812 18.60362598 10.10573929 16.3125 13.5 C15.879375 14.325 15.44625 15.15 15 16 C16.20728609 19.51202512 16.20728609 19.51202512 18 23 C18.39764263 24.98821313 18.75455166 26.98732362 19 29 C17.35 29 15.7 29 14 29 C13.86464844 28.30132813 13.72929688 27.60265625 13.58984375 26.8828125 C12.60058258 21.64419775 12.60058258 21.64419775 9.2421875 17.890625 C7.10650786 17.26901699 7.10650786 17.26901699 4 17 C4 20.96 4 24.92 4 29 C2.68 29 1.36 29 0 29 C0 19.43 0 9.86 0 0 Z " fill="#FAFAFA" transform="translate(512,588)"/>
<path d="M0 0 C13 0 13 0 16.3125 2 C18.65990923 6.17317196 18.67921978 8.24546155 18 13 C16.12984906 15.43119623 14.71861655 16.64069173 12 18 C9.3276379 18.13415472 6.67749512 18.04318541 4 18 C4 21.63 4 25.26 4 29 C2.68 29 1.36 29 0 29 C0 19.43 0 9.86 0 0 Z " fill="#F8F8F8" transform="translate(352,588)"/>
<path d="M0 0 C1.32 0 2.64 0 4 0 C4 3.96 4 7.92 4 12 C8.29 12 12.58 12 17 12 C17 8.04 17 4.08 17 0 C18.32 0 19.64 0 21 0 C21 9.57 21 19.14 21 29 C19.68 29 18.36 29 17 29 C17 24.71 17 20.42 17 16 C12.71 16 8.42 16 4 16 C4 20.29 4 24.58 4 29 C2.68 29 1.36 29 0 29 C0 19.43 0 9.86 0 0 Z " fill="#FCFCFC" transform="translate(108,588)"/>
<path d="M0 0 C5.28 0 10.56 0 16 0 C16 0.99 16 1.98 16 3 C12.04 3 8.08 3 4 3 C4 6.3 4 9.6 4 13 C7.63 13 11.26 13 15 13 C15 13.99 15 14.98 15 16 C11.37 16 7.74 16 4 16 C4 19.3 4 22.6 4 26 C8.29 26 12.58 26 17 26 C17 26.99 17 27.98 17 29 C11.39 29 5.78 29 0 29 C0 19.43 0 9.86 0 0 Z " fill="#FDFDFD" transform="translate(433,588)"/>
<path d="M0 0 C5.28 0 10.56 0 16 0 C16 0.99 16 1.98 16 3 C12.04 3 8.08 3 4 3 C4 6.3 4 9.6 4 13 C7.63 13 11.26 13 15 13 C15 13.99 15 14.98 15 16 C11.37 16 7.74 16 4 16 C4 19.3 4 22.6 4 26 C8.29 26 12.58 26 17 26 C17 26.99 17 27.98 17 29 C11.39 29 5.78 29 0 29 C0 19.43 0 9.86 0 0 Z " fill="#FEFEFE" transform="translate(194,588)"/>
<path d="M0 0 C1.32 0 2.64 0 4 0 C4 8.58 4 17.16 4 26 C7.96 26 11.92 26 16 26 C16 26.99 16 27.98 16 29 C10.72 29 5.44 29 0 29 C0 19.43 0 9.86 0 0 Z " fill="#FEFEFE" transform="translate(273,588)"/>
<path d="M0 0 C3.60008519 -0.32728047 5.41611492 -0.40422813 8.4375 1.6875 C10 4 10 4 10.0625 6.5625 C8.65071838 9.80129313 7.22748481 10.64895985 4 12 C2.68 11.67 1.36 11.34 0 11 C0 7.37 0 3.74 0 0 Z " fill="#010101" transform="translate(356,591)"/>
<path d="M0 0 C2.75 -0.25 2.75 -0.25 6 0 C8.375 2 8.375 2 10 4 C8.75023244 7.65316671 8.32901247 8.78065836 5 11 C3.35 11 1.7 11 0 11 C0 7.37 0 3.74 0 0 Z " fill="#000000" transform="translate(516,591)"/>
</svg>
